<svg xmlns="http://www.w3.org/2000/svg"
shape-rendering="geometricPrecision"
width="4000" height="4000" viewBox="0 0 1024 1024">
  <metadata>null</metadata>

<path d="
M 48.487 450.114
C 49.421 443.81 49.531 437.302 50.299 430.957
C 51.356 422.227 53.025 413.569 54.669 404.931
C 55.185 402.223 55.83 399.543 56.417 396.85
C 56.714 395.489 56.917 393.761 57.788 392.623
C 58.638 391.512 60.171 391.24 61.475 391.422
C 65.031 393.898 63.586 401.213 63.604 405.001
C 63.65 414.835 63.655 424.667 63.75 434.5
C 63.787 438.336 62.992 443.185 66.059 446.09
C 66.937 446.405 67.845 446.374 68.747 446.174
C 71.845 443.087 71.092 438.052 71.127 434.004
C 71.214 424.171 71.226 414.339 71.291 404.506
C 71.311 401.361 70.998 397.968 71.524 394.861
C 71.823 393.096 72.534 391.494 74.573 391.467
C 76.282 391.445 77.165 392.913 77.59 394.374
C 78.477 397.423 77.914 401.252 77.929 404.408
C 77.977 414.276 77.942 424.131 77.951 434.005
C 77.954 437.638 77.222 442.984 79.846 445.869
C 80.706 445.985 82.003 446.217 82.788 445.821
C 85.267 440.998 84.578 435.507 84.563 430.194
C 84.538 421.103 84.607 412.027 84.579 402.935
C 84.571 400.09 83.982 396.091 85.306 393.49
C 86.082 391.967 87.949 390.917 89.535 391.963
C 90.694 392.727 90.871 394.246 90.959 395.509
C 91.181 398.668 91.181 401.83 91.191 405.001
C 91.222 414.834 91.182 424.667 91.223 434.5
C 91.239 438.355 90.268 443.395 93.707 446.035
C 99.064 447.924 98.795 439.963 98.798 436.954
C 98.807 425.515 99.423 413.994 99.026 402.566
C 98.929 399.798 98.474 396.154 99.318 393.486
C 99.831 391.861 101.461 391.054 103.074 391.499
C 105.787 392.249 106.047 396.187 106.548 398.426
C 108.068 405.218 109.359 412.059 110.604 418.906
C 111.471 423.67 112.323 428.49 112.762 433.315
C 114.517 452.576 118.514 477.432 99.302 489.524
C 96.852 491.066 94.154 492.581 91.369 493.397
C 90.982 505.4 92.186 517.567 92.667 529.558
C 93.747 556.466 94.974 583.403 95.677 610.326
C 95.817 615.675 96.908 622.073 94.928 627.157
C 91.427 636.143 79.814 638.331 72.329 633.029
C 66.569 628.95 66.43 622.123 66.707 615.773
C 66.99 609.308 67.203 602.832 67.362 596.362
C 67.916 573.776 68.682 551.051 69.941 528.49
C 70.38 520.612 70.667 512.692 70.854 504.802
C 70.939 501.235 71.509 497.21 71.019 493.683
C 66.808 491.379 62.754 489.688 59.14 486.362
C 49.018 477.046 47.487 463.15 48.487 450.114 Z"
opacity="1" fill="rgb(0,0,1)" fill-rule="evenodd" />
<path d="
M 188.961 618.575
C 190.909 611.863 194.19 605.609 196.846 599.161
C 199.266 593.286 200.94 586.532 204.112 581.034
C 205.861 579.257 209.283 579.99 211.495 580.348
C 212.152 582.656 213.844 584.944 214.791 587.201
C 217.758 594.271 220.65 601.374 223.453 608.502
C 224.388 610.879 225.461 613.206 226.325 615.613
C 226.688 616.623 227.275 617.689 226.986 618.777
C 225.878 620.12 222.849 620.621 221.699 618.979
C 220.292 616.97 220.054 613.865 219.306 611.548
C 219.049 611.214 218.457 611.374 218.058 611.369
C 216.705 611.352 215.354 611.296 214.001 611.266
C 208.31 611.136 202.593 611.172 196.902 611.247
C 195.844 613.497 195.032 615.862 194.073 618.158
C 193.779 618.859 193.385 620.239 192.669 620.589
C 191.403 620.393 189.943 620.1 188.83 619.457
C 188.922 618.844 188.879 619.138 188.961 618.575 Z
M 199.441 605.566
C 199.137 606.363 199.159 606.004 199.217 606.62
C 205.067 606.286 211.062 607.327 216.919 606.721
C 217.335 605.405 215.69 602.889 215.246 601.621
C 213.441 596.465 211.424 590.624 208.503 586.017
C 206.301 586.746 206.262 589.352 205.521 591.226
C 203.61 596.051 201.387 600.754 199.441 605.566 Z"
opacity="1" fill="rgb(6,6,9)" fill-rule="evenodd" />
<path d="
M 289.469 401.829
C 290.273 402.145 291.108 402.321 291.831 402.819
C 295.415 405.286 295.104 409.853 294.876 413.707
C 294.763 415.604 294.752 418.07 293.844 419.799
C 293.166 421.09 291.615 421.656 290.792 422.824
C 289.232 424.177 287.331 423.868 285.316 423.877
C 281.21 423.895 277.107 423.89 273.001 423.846
C 257.167 423.678 241.331 424.129 225.497 423.811
C 222.539 423.763 218.91 423.189 216.04 423.89
C 215.45 429.331 216.012 435.031 215.989 440.506
C 215.958 447.88 215.415 455.304 215.76 462.671
C 216.46 463.298 219.587 463.093 220.616 463.102
C 223.011 463.121 225.388 462.861 227.778 462.831
C 230.117 462.802 232.748 463.024 235.017 462.38
C 244.103 462.586 253.199 462.484 262.284 462.43
C 264.905 462.414 267.53 462.365 270.151 462.424
C 271.4 462.453 272.876 462.343 274.024 462.874
C 275.349 464.002 277.089 465.934 277.656 467.61
C 278.183 469.171 277.906 471.13 277.902 472.752
C 277.89 477.566 277.692 483.324 272.272 485.153
C 270.337 485.806 268.238 485.444 266.24 485.429
C 262.327 485.4 258.414 485.327 254.5 485.321
C 241.679 485.303 228.791 485.664 215.979 485.274
C 215.967 486.192 216.038 487.071 216.125 487.982
C 215.939 502.638 215.731 517.33 215.681 532
C 215.673 534.499 215.495 537.02 215.5 539.507
C 215.502 540.336 215.706 541.044 215.461 541.885
C 214.816 544.097 211.113 546.17 208.972 546.348
C 204.195 546.423 199.221 546.809 194.996 544.467
C 194.212 543.337 193.38 542.349 192.802 541.079
C 191.865 536.642 192.698 531.522 192.735 527.005
C 192.806 518.503 192.651 510.002 192.655 501.5
C 192.668 474.487 192.407 447.502 192.183 420.497
C 192.166 418.827 192.143 417.151 192.214 415.482
C 192.489 409.903 196.336 403.598 202.059 402.005
C 205.214 401.126 208.98 401.426 212.224 401.44
C 230.978 401.52 249.765 401.095 268.511 401.51
C 275.442 401.663 282.58 400.953 289.469 401.829 Z"
opacity="1" fill="rgb(0,0,1)" fill-rule="evenodd" />
<path d="
M 192.802 541.079
C 193.38 542.349 194.212 543.337 194.996 544.467
C 194.338 544.025 191.966 541.944 192.802 541.079 Z"
opacity="0.996" fill="rgb(126,147,182)" fill-rule="evenodd" />
<path d="
M 234.489 617.119
C 234.991 613.148 234.69 609.001 234.649 605.008
C 234.6 600.172 234.733 595.343 234.765 590.508
C 234.78 588.177 234.813 585.842 234.743 583.511
C 234.711 582.431 234.462 580.908 234.911 579.922
C 236.455 579.625 237.954 579.288 239.272 580.358
C 240.604 582.494 239.71 587.034 239.649 589.496
C 239.475 596.461 239.647 603.434 239.676 610.399
C 239.684 612.325 239.698 614.25 239.742 616.175
C 239.764 617.143 239.977 618.308 239.469 619.175
C 238.157 620.197 236.337 620.234 234.883 619.5
C 234.353 618.768 234.442 617.99 234.489 617.119 Z"
opacity="1" fill="rgb(4,5,6)" fill-rule="evenodd" />
<path d="
M 265.89 580.565
C 266.164 579.942 265.986 580.274 266.462 579.592
C 272.183 579.274 278.043 579.531 283.782 579.536
C 287.13 579.539 290.689 579.292 293.603 581.159
C 298.698 584.424 299.264 589.765 298.864 595.265
C 298.577 599.207 297.321 603.172 293.5 604.98
C 290.913 606.205 287.788 606.154 284.989 606.196
C 280.417 606.265 275.836 606.13 271.268 606.295
C 270.736 610.398 272.088 615.175 270.807 619.133
C 269.484 620.595 267.598 620.1 266.011 619.412
C 265.581 618.426 265.838 617.075 265.827 616.006
C 265.802 613.507 265.796 611.009 265.759 608.51
C 265.669 602.51 265.637 596.51 265.618 590.509
C 265.608 587.252 265.294 583.781 265.89 580.565 Z
M 270.986 585.106
C 270.107 590.715 271.259 596.616 270.836 602.262
C 272.053 602.709 274.643 602.165 276.006 602.156
C 279.172 602.136 282.348 602.121 285.51 601.999
C 287.518 601.922 289.64 601.924 291.349 600.699
C 294.136 598.701 293.873 594.753 293.878 591.714
C 293.88 590.47 294.078 588.957 293.587 587.782
C 293.118 586.66 292.25 585.629 291.253 584.941
C 289.705 583.874 287.37 584.029 285.557 583.963
C 281.036 583.798 276.069 583.498 271.59 584.124
C 271.061 584.845 271.237 584.503 270.986 585.106 Z"
opacity="1" fill="rgb(11,11,14)" fill-rule="evenodd" />
<path d="
M 303.787 461.371
C 308.352 455.084 314.009 448.889 320.898 445.09
C 325.863 442.352 331.355 441.101 336.45 438.76
C 346.595 436.359 357.912 437.225 367.619 440.876
C 369.957 441.755 372.801 442.358 374.788 443.945
C 376.542 445.347 377.021 447.798 378.564 449.422
C 377.687 448.846 376.723 448.848 375.722 448.717
C 374.596 448.57 373.073 448.268 371.961 448.597
C 370.728 448.961 369.838 450.42 369.204 451.449
C 366.932 455.139 366.928 458.973 368.945 462.758
C 370.065 464.86 371.539 468.534 374.586 467.076
C 375.93 466.432 377.176 465.184 378.246 464.165
C 379.469 462.999 380.55 461.524 381.109 459.919
C 381.932 457.555 382.371 454.911 382.64 452.426
C 382.902 451.045 384.07 449.742 385.53 449.774
C 388.903 452.083 390.814 455.444 392.961 458.839
C 396.77 464.863 400.411 471.47 401.765 478.546
C 403.955 488.998 403.41 499.689 400.052 509.836
C 398.578 512.987 397.355 516.175 395.554 519.18
C 391.184 526.473 384.94 533.089 377.65 537.524
C 366.639 544.225 352.791 547.415 340.011 545.248
C 310.275 540.205 289.136 510.314 295.734 480.702
C 297.261 473.849 299.887 467.214 303.787 461.371 Z
M 316.002 488.122
C 315.48 494.037 316.61 500.857 319.266 506.159
C 325.833 519.271 341.448 526.971 355.881 523.996
C 362.884 522.552 369.104 518.201 373.881 513.047
C 380.356 506.059 382.222 496.133 381.227 486.939
C 380.809 483.074 379.706 478.304 376.678 475.58
C 374.116 476.163 370.958 478.01 368.382 477.896
C 365.641 477.774 364.753 476.235 363.244 474.223
C 362.163 472.783 360.888 471.825 360.112 470.146
C 359.036 467.82 358.86 465.141 357.749 462.906
C 356.723 462.021 355.37 461.715 354.103 461.312
C 350.676 460.221 347.474 459.67 343.861 459.986
C 341.563 460.187 339.272 460.203 337.039 460.868
C 328.251 463.485 321.424 470.813 317.946 479.063
C 316.71 481.997 316.715 485.101 316.002 488.122 Z"
opacity="1" fill="rgb(0,0,1)" fill-rule="evenodd" />
<path d="
M 306.384 594.563
C 307.131 591.806 310.17 590.613 312.66 589.975
C 318.46 588.487 326.565 588.339 331.58 592.099
C 333.292 593.383 333.895 595.533 334.26 597.541
C 334.846 600.767 334.679 604.006 334.63 607.272
C 334.594 609.7 334.767 612.318 334.045 614.67
C 331.897 621.663 322.265 620.355 316.605 620.275
C 314.087 620.24 310.801 620.062 308.784 618.365
C 305.72 615.788 306.123 612.86 306.191 609.244
C 306.244 606.5 306.192 603.749 306.189 601.004
C 306.187 598.969 305.847 596.543 306.384 594.563 Z
M 310.946 596.594
C 310.566 598.125 310.786 599.927 310.775 601.494
C 310.754 604.469 310.7 607.463 310.858 610.435
C 310.937 611.918 310.775 614.188 312.021 615.244
C 313.153 616.203 314.952 615.954 316.331 615.989
C 319.499 616.069 322.77 616.289 325.918 615.775
C 327.579 615.504 329.056 614.76 329.567 613.042
C 330.003 611.579 329.805 609.874 329.805 608.368
C 329.806 605.617 329.828 602.868 329.806 600.117
C 329.788 598.026 329.787 596.168 328.018 594.73
C 326.868 593.794 325.4 593.868 324.019 593.672
C 320.891 593.228 317.728 593.044 314.615 593.738
C 313.134 594.068 311.342 594.996 310.946 596.594 Z"
opacity="1" fill="rgb(12,12,15)" fill-rule="evenodd" />
<path d="
M 316.002 488.122
C 316.715 485.101 316.71 481.997 317.946 479.063
C 321.424 470.813 328.251 463.485 337.039 460.868
C 339.272 460.203 341.563 460.187 343.861 459.986
C 347.474 459.67 350.676 460.221 354.103 461.312
C 355.37 461.715 356.723 462.021 357.749 462.906
C 358.86 465.141 359.036 467.82 360.112 470.146
C 360.888 471.825 362.163 472.783 363.244 474.223
C 364.753 476.235 365.641 477.774 368.382 477.896
C 370.958 478.01 374.116 476.163 376.678 475.58
C 379.706 478.304 380.809 483.074 381.227 486.939
C 382.222 496.133 380.356 506.059 373.881 513.047
C 369.104 518.201 362.884 522.552 355.881 523.996
C 341.448 526.971 325.833 519.271 319.266 506.159
C 316.61 500.857 315.48 494.037 316.002 488.122 Z"
opacity="1" fill="rgb(223,89,60)" fill-rule="evenodd" />
<path d="
M 340.568 589.956
C 341.621 589.544 343.327 589.025 344.252 589.884
C 345.743 592.054 346.251 594.938 346.953 597.44
C 347.969 601.061 349.337 604.608 350.499 608.185
C 351.036 609.837 351.796 611.411 352.299 613.065
C 352.454 613.574 352.508 614.572 352.932 614.887
C 353.742 613.532 354.058 611.327 354.53 609.798
C 356.025 604.956 357.261 600.022 358.89 595.221
C 359.452 593.563 359.724 591.642 360.659 590.146
C 361.518 589.266 364.481 588.929 365.434 589.809
C 368.497 595.255 369.759 602.247 371.617 608.197
C 372.264 610.267 372.719 613.186 373.888 614.991
C 375.365 613.115 375.909 610.336 376.586 608.097
C 377.734 604.301 378.805 600.48 379.877 596.661
C 380.48 594.515 380.815 591.467 382.501 589.882
C 383.722 589.51 385.323 589.635 386.115 590.744
C 386.462 592.819 384.697 596.049 384.167 598.085
C 382.847 603.162 381.347 608.179 379.545 613.109
C 378.886 614.915 378.591 617.226 377.387 618.77
C 376.375 620.068 374.06 620.355 372.521 620.271
C 370.366 619.966 369.618 616.151 369.133 614.409
C 367.834 609.751 366.519 605.163 364.951 600.587
C 364.591 599.536 363.936 596.525 362.997 596.1
C 361.26 601.928 359.559 607.786 357.847 613.633
C 357.197 615.857 357.14 618.872 354.894 620.148
C 353.25 620.59 351.31 620.037 349.647 619.843
C 347.917 616.859 347.358 612.902 346.265 609.644
C 344.818 605.33 343.519 600.994 342.161 596.645
C 341.487 594.487 340.448 592.596 339.969 590.363
C 340.168 590.227 340.368 590.092 340.568 589.956 Z"
opacity="1" fill="rgb(12,12,15)" fill-rule="evenodd" />
<path d="
M 378.564 449.422
C 379.519 450.077 381.389 452.544 382.64 452.426
C 382.371 454.911 381.932 457.555 381.109 459.919
C 380.55 461.524 379.469 462.999 378.246 464.165
C 377.176 465.184 375.93 466.432 374.586 467.076
C 371.539 468.534 370.065 464.86 368.945 462.758
C 366.928 458.973 366.932 455.139 369.204 451.449
C 369.838 450.42 370.728 448.961 371.961 448.597
C 373.073 448.268 374.596 448.57 375.722 448.717
C 376.723 448.848 377.687 448.846 378.564 449.422 Z"
opacity="1" fill="rgb(20,163,22)" fill-rule="evenodd" />
<path d="
M 391.966 603.62
C 392.438 600.369 391.685 596.384 393.673 593.523
C 394.932 591.71 396.985 590.624 399.077 590.084
C 404.459 588.694 413.94 588.095 418.236 592.309
C 421.058 595.077 421.321 598.031 421.168 601.83
C 421.102 603.458 420.932 605.458 419.339 606.352
C 417.536 607.365 414.995 606.863 413.01 606.887
C 407.839 606.949 402.515 606.475 397.374 606.897
C 396.97 607.457 397.07 608.53 397.101 609.192
C 397.205 611.443 397.558 614.677 400.051 615.558
C 401.626 616.114 403.607 615.882 405.247 615.898
C 409.804 615.943 414.302 615.089 418.825 615.172
C 418.886 616.594 418.942 618.262 417.551 619.092
C 415.953 620.045 413.457 620.061 411.636 620.121
C 407.278 620.265 401.809 620.75 397.604 619.392
C 392.853 617.857 392.57 612.101 392.252 608.029
C 392.137 606.553 391.879 605.104 391.966 603.62 Z
M 396.944 599.607
C 396.781 600.78 396.8 601.993 397.298 603.084
C 398.493 603.864 400.623 603.468 402.008 603.45
C 406.203 603.397 411.626 604.384 415.633 603.057
C 417.506 601.042 416.445 595.873 414.267 594.486
C 411.317 592.608 406.563 593.04 403.203 593.145
C 401.733 593.19 400.32 593.378 399.164 594.374
C 397.626 595.699 397.343 597.736 396.944 599.607 Z"
opacity="1" fill="rgb(13,14,17)" fill-rule="evenodd" />
<path d="
M 420.104 463.918
C 420.372 460.738 422.031 457.462 423.546 454.698
C 427.902 446.755 435.462 440.087 444.555 438.249
C 451.676 436.809 459.294 437.722 466.509 437.734
C 470.588 437.741 474.667 437.685 478.746 437.669
C 480.588 437.662 483.23 437.314 484.934 438.134
C 486.347 438.813 487.201 440.107 488.348 441.082
C 489.43 443.357 489.811 445.472 490.007 447.992
C 489.976 449.312 489.817 450.62 489.699 451.933
C 489.63 452.546 489.527 453.136 489.375 453.733
C 488.349 456.496 485.952 459.013 482.945 459.637
C 475.842 459.274 468.613 459.718 461.497 459.73
C 457.769 459.736 453.219 459.067 449.608 460.136
C 446.825 460.96 444.899 463.334 443.631 465.811
C 442.43 467.444 442.496 469.562 442.482 471.499
C 442.455 475.332 442.576 479.162 442.56 482.995
C 442.502 496.829 442.679 510.668 442.706 524.507
C 442.713 528.411 442.703 532.315 442.669 536.219
C 442.651 538.246 442.883 540.536 442.03 542.435
C 440.881 544.991 438.467 545.568 435.983 545.859
C 431.536 546.382 426.67 546.945 422.54 544.898
C 421.035 544.169 419.488 542.209 419.295 540.535
C 418.763 523.764 419.276 506.841 419.571 490.09
C 419.724 481.375 419.078 472.592 420.104 463.918 Z"
opacity="1" fill="rgb(0,0,1)" fill-rule="evenodd" />
<path d="
M 428.449 598.617
C 428.811 596.095 428.985 593.829 430.866 591.891
C 433.714 588.955 439.355 589.217 443.127 589.325
C 444.599 589.367 446.169 589.333 447.495 590.036
C 447.775 590.651 448.483 593.337 447.878 593.819
C 445.098 593.706 442.256 593.776 439.471 593.832
C 438.284 593.856 436.852 593.714 435.765 594.288
C 432.76 595.874 433.19 599.138 433.246 601.967
C 433.359 607.793 434.136 613.983 433.592 619.781
C 432.065 620.088 430.193 619.887 428.645 619.807
C 427.872 617.645 428.533 614.689 428.547 612.422
C 428.577 607.828 428.12 603.214 428.449 598.617 Z"
opacity="1" fill="rgb(12,11,14)" fill-rule="evenodd" />
<path d="
M 453.46 598.11
C 453.886 595.537 454.13 593.168 456.291 591.375
C 457.741 590.172 459.861 590.132 461.655 589.898
C 466.559 589.26 474.276 588.183 478.383 591.617
C 481.374 594.118 481.892 598.058 481.797 601.717
C 481.751 603.506 481.649 605.4 480.278 606.708
C 478.774 607.318 476.613 606.882 475.009 606.871
C 471.712 606.85 468.417 606.982 465.12 606.882
C 463.161 606.823 460.985 606.462 459.092 607.079
C 456.959 609.711 458.974 614.163 461.787 615.49
C 463.165 616.14 464.915 616.004 466.399 616.007
C 469.436 616.012 472.472 615.987 475.505 615.828
C 476.9 615.755 478.68 615.384 480.011 615.851
C 479.722 621.735 471.45 620.223 467.246 620.224
C 466.129 620.225 465.013 620.232 463.897 620.2
C 462.074 620.147 459.898 620.206 458.268 619.279
C 456.119 618.055 454.956 615.812 454.37 613.497
C 453.178 608.785 452.997 602.934 453.46 598.11 Z
M 458.439 597.085
C 458.137 598.677 457.477 601.983 458.822 603.222
C 461.196 603.879 464.064 603.495 466.511 603.486
C 468.447 603.479 470.385 603.505 472.321 603.479
C 473.333 603.466 474.659 603.583 475.554 603.02
C 477.974 601.499 476.973 597.015 475.415 595.209
C 473.004 592.413 467.304 593.2 464.016 593.344
C 462.928 593.392 461.434 593.237 460.452 593.782
C 459.193 594.48 458.857 595.828 458.439 597.085 Z"
opacity="1" fill="rgb(12,14,18)" fill-rule="evenodd" />
<path d="
M 488.907 597.084
C 490.922 588.363 501.733 588.959 508.704 590.011
C 510.166 590.232 511.606 590.945 513.058 591.049
C 513.562 586.908 512.677 582.697 513.544 578.594
C 514.558 578.304 516.783 578.474 517.559 579.2
C 518.22 582.787 517.827 586.849 517.783 590.496
C 517.715 596.14 517.864 601.781 517.859 607.425
C 517.857 610.611 518.633 614.875 516.196 617.357
C 513.976 619.617 510.876 619.822 507.887 619.911
C 502.087 620.084 494.346 621.194 490.402 615.962
C 489.374 614.598 489.43 612.642 489.211 611.01
C 488.612 606.548 487.974 601.547 488.907 597.084 Z
M 493.45 599.613
C 493.075 602.852 493.238 606.304 493.61 609.536
C 493.792 611.12 494.026 612.892 495.07 614.17
C 496.189 615.538 497.937 615.655 499.572 615.759
C 502.601 615.952 505.616 616.124 508.614 615.483
C 509.939 615.2 511.771 614.87 512.605 613.668
C 513.572 612.274 513.185 609.612 513.175 608.007
C 513.144 603.411 512.776 598.75 512.89 594.17
C 510.531 593.604 507.915 593.818 505.499 593.753
C 501.664 593.65 496.482 592.673 494.242 596.631
C 493.706 597.579 493.628 598.563 493.45 599.613 Z"
opacity="1" fill="rgb(6,7,12)" fill-rule="evenodd" />
<path d="
M 522.066 400.342
C 518.085 399.907 514.016 400.232 510.025 400.309
C 507.568 400.357 505.424 400.46 504.059 402.858
C 502.45 405.687 503.297 410.355 503.265 413.494
C 503.181 421.661 503.215 429.827 503.211 437.993
C 503.199 461.996 503.132 486.002 503.281 510.004
C 503.325 517.07 503.596 524.155 503.579 531.209
C 503.571 534.555 502.892 538.783 503.94 541.996
C 504.968 545.143 508.453 545.65 511.25 545.859
C 515.733 546.194 520.712 547.16 524.094 543.543
C 524.768 542.822 525.574 542.157 525.89 541.198
C 526.139 538.681 525.925 536.039 526.001 533.503
C 526.267 524.677 526.051 515.83 526.21 506.999
C 526.428 507.512 527.359 508.282 527.294 508.829
C 526.977 511.53 527.098 514.227 527.091 516.982
C 527.075 523.564 527.978 530.627 526.787 537.118
C 526.55 538.41 526.772 539.71 526.516 540.995
C 526.479 541.178 526.766 541.501 526.659 541.632
C 526.132 542.274 525.679 542.972 525.152 543.714
C 524.292 544.923 522.731 546.16 521.341 546.694
C 519.472 547.414 517.378 547.237 515.424 547.217
C 512.439 547.187 508.997 547.592 506.13 546.344
C 505.129 545.909 504.68 545.122 503.912 544.427
C 503.109 543.702 502.213 543.102 501.894 541.976
C 501.502 540.587 501.706 538.91 501.703 537.479
C 501.696 534.146 501.837 530.813 501.849 527.479
C 501.884 517.148 501.718 506.817 501.708 496.486
C 501.697 485.652 501.996 474.764 501.666 463.936
C 501.289 451.523 500.879 438.904 501.602 426.5
C 502.037 419.041 500.62 411.387 501.836 403.967
C 502.766 398.287 511.501 397.583 515.92 398.865
C 516.684 399.086 516.725 399.966 517.471 400.118
C 518.883 400.406 520.822 398.972 522.066 400.342 Z"
opacity="0.996" fill="rgb(229,235,249)" fill-rule="evenodd" />
<path d="
M 522.066 400.342
C 523.985 400.884 525.928 404.095 526.047 405.953
C 526.471 412.564 526.411 419.53 526.012 426.147
C 525.615 432.718 525.985 439.42 525.964 446.005
C 525.919 460.088 525.8 474.211 525.887 488.266
C 525.925 494.51 526.311 500.768 526.21 506.999
C 526.051 515.83 526.267 524.677 526.001 533.503
C 525.925 536.039 526.139 538.681 525.89 541.198
C 525.574 542.157 524.768 542.822 524.094 543.543
C 520.712 547.16 515.733 546.194 511.25 545.859
C 508.453 545.65 504.968 545.143 503.94 541.996
C 502.892 538.783 503.571 534.555 503.579 531.209
C 503.596 524.155 503.325 517.07 503.281 510.004
C 503.132 486.002 503.199 461.996 503.211 437.993
C 503.215 429.827 503.181 421.661 503.265 413.494
C 503.297 410.355 502.45 405.687 504.059 402.858
C 505.424 400.46 507.568 400.357 510.025 400.309
C 514.016 400.232 518.085 399.907 522.066 400.342 Z"
opacity="1" fill="rgb(0,0,1)" fill-rule="evenodd" />
<path d="
M 571.44 436.997
C 576.09 436.762 582.974 435.501 586.442 439.044
C 587.474 440.623 588.768 442.504 588.681 444.484
C 588.621 445.866 587.632 447.172 586.939 448.308
C 585.473 450.713 583.704 452.906 582.202 455.277
C 580.261 457.184 578.684 459.961 577.095 462.183
C 574.177 466.263 571.061 470.213 568.192 474.333
C 566.743 476.337 565.022 478.185 563.738 480.3
C 561.419 482.769 558.039 486.839 557.054 490.086
C 557.573 491.622 559.144 493.962 560.266 495.149
C 562.101 498.544 564.937 501.613 567.239 504.711
C 571.587 510.562 575.849 516.501 580.37 522.22
C 583.761 526.508 588.451 531.442 590.175 536.714
C 591.289 540.122 589.197 544.825 585.591 545.875
C 582.903 546.657 579.737 546.112 576.991 545.951
C 575.381 545.857 573.153 546.112 571.663 545.44
C 569.064 544.268 568.064 541.65 566.035 539.928
C 562.966 534.637 558.924 529.725 555.238 524.854
C 550.356 518.405 545.6 511.782 541.012 505.121
C 537.921 500.634 532.503 495.312 532.754 489.452
C 532.931 485.336 535.985 481.249 538.258 477.993
C 543.135 471.005 548.024 464.019 553.18 457.234
C 557.053 452.137 560.767 446.895 564.756 441.893
C 566.734 439.414 568.062 437.182 571.44 436.997 Z"
opacity="1" fill="rgb(0,0,2)" fill-rule="evenodd" />
<path d="
M 542.443 589.604
C 542.673 588.269 542.848 587.053 543.468 585.828
C 547.239 578.376 556.158 579.711 563.134 580.039
C 567.104 580.226 573.448 578.933 573.428 584.425
C 568.404 584.786 563.403 584.474 558.353 584.39
C 555.88 584.349 552.947 583.951 550.72 585.227
C 544.911 588.556 547.745 597.308 547.575 602.852
C 547.495 605.47 546.977 608.525 547.84 611.061
C 548.398 612.7 550.061 614.09 551.491 614.973
C 553.296 616.086 555.977 615.726 558.009 615.759
C 562.802 615.837 568.194 614.931 572.904 615.688
C 573.529 616.507 573.971 617.323 573.917 618.372
C 572.934 619.83 571.136 620.116 569.508 620.133
C 566.475 620.164 563.442 620.048 560.409 620.056
C 556.562 620.067 551.369 620.528 547.913 618.593
C 540.863 614.646 542.414 604.704 542.332 597.901
C 542.299 595.141 542.189 592.356 542.443 589.604 Z"
opacity="1" fill="rgb(6,6,10)" fill-rule="evenodd" />
<path d="
M 560.266 495.149
C 561.883 494.5 562.281 496.159 563.247 497.208
C 565.455 499.604 567.146 502.267 569.039 504.899
C 574.835 512.958 581.357 520.396 587.017 528.585
C 589.569 532.277 593.062 535.333 592.022 540.309
C 591.297 543.776 588.602 547.209 584.987 547.813
C 582.865 548.167 580.57 547.601 578.46 547.38
C 576.547 547.18 574.815 547.323 572.971 546.823
C 570.112 546.047 568.853 544.657 566.819 542.666
C 566.301 542.159 564.355 539.883 566.035 539.928
C 568.064 541.65 569.064 544.268 571.663 545.44
C 573.153 546.112 575.381 545.857 576.991 545.951
C 579.737 546.112 582.903 546.657 585.591 545.875
C 589.197 544.825 591.289 540.122 590.175 536.714
C 588.451 531.442 583.761 526.508 580.37 522.22
C 575.849 516.501 571.587 510.562 567.239 504.711
C 564.937 501.613 562.101 498.544 560.266 495.149 Z"
opacity="1" fill="rgb(226,241,253)" fill-rule="evenodd" />
<path d="
M 586.442 439.044
C 582.974 435.501 576.09 436.762 571.44 436.997
C 572.869 436.55 574.516 436.797 575.993 436.792
C 579.375 436.782 582.498 436.686 585.681 437.675
C 586.204 438.026 586.273 438.452 586.442 439.044 Z"
opacity="1" fill="rgb(76,89,100)" fill-rule="evenodd" />
<path d="
M 580.437 608.603
C 580.809 606.52 581.603 604.333 583.577 603.231
C 585.349 602.241 587.868 602.367 589.836 602.319
C 594.274 602.211 598.696 602.506 603.129 602.553
C 604.564 600.028 602.777 594.834 600.069 593.932
C 594.802 592.178 588.844 593.602 583.496 593.977
C 583.184 592.966 583.187 591.956 583.21 590.907
C 584.009 589.88 585.211 589.782 586.444 589.616
C 588.823 589.295 591.27 589.163 593.669 589.124
C 595.523 589.093 597.45 589.127 599.275 589.471
C 600.343 589.671 601.385 589.928 602.354 590.433
C 608.817 593.798 607.749 600.779 607.817 606.995
C 607.848 609.906 608.693 614.087 607.121 616.71
C 605.093 620.094 599.972 619.75 596.578 619.865
C 591.973 620.022 584.632 621.224 581.815 616.483
C 581.11 615.297 580.776 613.977 580.559 612.629
C 580.346 611.303 580.303 609.94 580.437 608.603 Z
M 584.891 609.099
C 584.753 610.749 584.702 612.958 585.581 614.412
C 588.678 617.146 594.864 616.633 598.625 615.994
C 600.208 615.725 601.799 615.518 602.824 614.128
C 604.363 612.042 603.574 608.873 603.378 606.523
C 602.134 605.981 600.148 606.367 598.808 606.344
C 595.001 606.279 588.04 604.899 585.211 608.123
C 584.957 608.796 585.061 608.47 584.891 609.099 Z"
opacity="1" fill="rgb(10,11,14)" fill-rule="evenodd" />
<path d="
M 639.963 459.984
C 638.236 459.942 636.418 459.833 634.755 460.409
C 630.533 461.871 626.657 466.412 625.426 470.62
C 624.459 473.926 624.901 477.586 624.89 480.992
C 624.872 486.75 624.794 492.505 624.681 498.262
C 624.532 505.863 623.658 513.821 630.433 519.058
C 634.093 523.098 639.456 523.282 644.504 523.309
C 653.34 523.355 662.175 523.208 671.011 523.223
C 675.578 523.231 680.909 522.738 684.58 526.031
C 689.358 530.317 688.735 543.252 681.664 545.303
C 679.793 545.845 677.79 545.596 675.871 545.578
C 672.375 545.546 668.877 545.329 665.375 545.302
C 657.573 545.241 649.767 545.497 641.968 545.373
C 637.103 545.296 631.652 545.263 627.125 543.226
C 622.931 541.043 618.676 539.148 615.137 535.89
C 609.941 531.106 605.164 523.315 603.528 516.433
C 602.527 512.222 602.652 507.677 602.585 503.376
C 602.484 496.954 602.404 490.538 602.358 484.11
C 602.308 477.042 601.896 469.549 603.844 462.673
C 606.974 451.628 617.162 441.824 628.202 438.848
C 633.224 437.493 638.358 437.666 643.511 437.683
C 650.268 437.704 657.027 437.746 663.783 437.663
C 667.173 437.622 670.556 437.478 673.943 437.407
C 675.869 437.366 678.004 437.131 679.862 437.755
C 682.08 438.498 684.686 440.56 685.408 442.835
C 685.923 444.456 685.751 446.2 686.025 447.859
C 686.354 449.853 686.178 452.932 685.252 454.761
C 684.327 456.59 682.158 458.082 680.372 458.978
C 677.008 460.668 671.679 459.898 668.004 459.931
C 658.717 460.014 649.207 459.223 639.963 459.984 Z"
opacity="1" fill="rgb(0,0,1)" fill-rule="evenodd" />
<path d="
M 617.37 579.072
C 617.506 578.602 617.584 578.225 617.977 577.913
C 623.317 576.887 622.242 583.297 622.078 586.694
C 621.742 593.635 622.018 600.779 622.223 607.73
C 622.286 609.897 621.577 613.644 623.006 615.431
C 625.203 616.64 629.642 615.294 630.31 618.842
C 629.449 620.374 627.377 620.19 625.901 620.006
C 622.697 619.606 618.688 619.452 617.76 615.599
C 617.361 613.945 617.557 612.078 617.544 610.387
C 617.523 607.426 617.434 604.464 617.426 601.498
C 617.407 594.14 616.67 586.386 617.37 579.072 Z"
opacity="1" fill="rgb(7,8,11)" fill-rule="evenodd" />
<path d="
M 635.442 596.602
C 636.32 588.039 648.735 588.625 654.97 589.535
C 657.011 589.833 659.084 590.469 660.721 591.772
C 664.003 594.385 664.117 597.936 664.228 601.816
C 664.343 605.822 664.316 609.821 663.828 613.797
C 663.491 616.542 661.544 618.107 659.082 619.071
C 654.913 620.703 649.859 620.211 645.494 619.954
C 643.45 619.834 640.958 619.983 639.229 618.73
C 634.306 615.164 634.99 608.329 635.132 602.997
C 635.189 600.866 635.224 598.723 635.442 596.602 Z
M 659.426 610.002
C 659.482 606.803 659.578 603.638 659.448 600.433
C 659.406 599.394 659.706 598.286 659.417 597.266
C 659.069 596.039 657.654 594.949 656.63 594.311
C 654.006 592.62 649.076 593.589 646.045 593.516
C 645.512 593.446 645.009 593.302 644.471 593.281
C 641.816 593.737 640.414 595.899 640.221 598.47
C 639.999 601.989 639.907 605.475 639.93 609.003
C 639.942 610.933 639.921 612.987 641.466 614.391
C 643.475 616.215 646.372 615.691 648.855 615.685
C 651.707 615.679 657.35 616.671 659.021 613.675
C 659.604 612.629 659.447 611.15 659.426 610.002 Z"
opacity="1" fill="rgb(6,7,12)" fill-rule="evenodd" />
<path d="
M 672.909 594.055
C 675.108 588.482 681.456 588.901 686.508 588.892
C 689.34 588.887 693.235 588.881 692.246 592.797
C 688.367 593.678 683.566 591.553 679.892 593.336
C 677.121 594.681 677.194 597.994 677.237 600.612
C 677.311 605.141 677.519 609.668 677.608 614.187
C 677.638 615.742 678.105 618.003 677.35 619.425
C 676.348 620.589 673.934 620.043 672.637 619.694
C 672.508 614.303 672.637 608.899 672.608 603.505
C 672.592 600.439 672.144 597.048 672.909 594.055 Z"
opacity="1" fill="rgb(12,11,16)" fill-rule="evenodd" />
<path d="
M 697.835 579.534
C 698.157 578.91 697.961 579.257 698.449 578.509
C 699.725 578.133 701.276 578.103 702.472 578.772
C 703.286 579.791 703.429 581.212 702.863 582.397
C 701.628 583.79 698.729 584.111 697.809 582.196
C 697.395 581.334 697.642 580.413 697.835 579.534 Z"
opacity="1" fill="rgb(8,8,14)" fill-rule="evenodd" />
<path d="
M 697.926 590.075
C 697.991 589.886 698.055 589.697 698.119 589.507
C 699.923 588.313 702.484 589.032 702.587 591.444
C 702.985 600.725 701.904 610.189 702.45 619.49
C 701.778 620.176 698.91 619.483 698.057 619.328
C 697.278 613.349 697.849 607.032 697.822 601.003
C 697.806 597.477 697.114 593.531 697.926 590.075 Z"
opacity="1" fill="rgb(11,11,11)" fill-rule="evenodd" />
<path d="
M 700.727 501.93
C 702.478 498.077 703.526 493.946 706.481 490.713
C 710.613 486.191 715.62 483.023 721.591 481.59
C 726.652 480.375 732.319 480.928 737.481 480.91
C 747.117 480.876 756.852 481.164 766.473 480.821
C 766.814 480.632 766.634 479.347 766.665 478.967
C 766.841 476.821 766.794 474.65 766.834 472.497
C 766.872 470.405 767.36 467.676 766.707 465.667
C 764.6 459.179 755.863 459.268 750.494 459.98
C 740.764 459.211 730.768 459.835 721 459.883
C 716.865 459.903 711.091 460.754 707.18 459.247
C 701.482 457.052 701.132 450.259 701.724 445.066
C 702.04 442.29 703.397 438.941 706.325 438.037
C 708.639 437.323 711.602 437.72 714.009 437.691
C 719.178 437.627 724.344 437.588 729.513 437.592
C 736.679 437.597 743.846 437.687 751.012 437.622
C 757.43 437.564 763.795 437.22 769.91 439.552
C 773.152 440.788 776.849 442.636 779.439 444.971
C 780.809 446.205 781.813 448.07 783.328 449.096
C 785.316 452.899 787.523 456.335 788.439 460.641
C 789.56 465.914 789.297 471.125 789.268 476.483
C 789.235 482.659 789.384 488.829 789.558 495
C 789.625 504.013 789.506 513.037 789.415 522.058
C 789.343 529.149 789.384 535.762 783.643 540.833
C 778.296 545.556 772.178 545.737 765.461 545.707
C 760.808 545.686 756.157 545.64 751.504 545.672
C 745.335 545.714 739.166 545.698 732.997 545.752
C 729.297 545.785 725.407 546.211 721.781 545.316
C 712.591 543.047 704.701 536.305 701.553 527.301
C 700.343 523.84 700.281 520.024 700.201 516.397
C 700.095 511.59 699.973 506.684 700.727 501.93 Z
M 767.158 503.303
C 762.227 503.819 756.948 503.362 751.984 503.317
C 746.986 503.263 741.988 503.352 736.99 503.345
C 733.756 503.341 730.613 503.111 727.411 503.671
C 719.959 506.471 718.712 520.103 726.711 523.151
C 729.329 524.148 732.924 523.632 735.669 523.646
C 742.351 523.681 749.031 523.43 755.71 523.452
C 758.199 523.46 760.686 523.471 763.174 523.531
C 764.437 523.562 766.089 523.834 767.305 523.487
C 766.524 518.777 767.331 513.3 767.293 508.509
C 767.283 507.17 767.848 504.412 767.158 503.303 Z"
opacity="1" fill="rgb(0,0,1)" fill-rule="evenodd" />
<path d="
M 750.494 459.98
C 755.863 459.268 764.6 459.179 766.707 465.667
C 767.36 467.676 766.872 470.405 766.834 472.497
C 766.794 474.65 766.841 476.821 766.665 478.967
C 766.634 479.347 766.814 480.632 766.473 480.821
C 756.852 481.164 747.117 480.876 737.481 480.91
C 732.319 480.928 726.652 480.375 721.591 481.59
C 715.62 483.023 710.613 486.191 706.481 490.713
C 703.526 493.946 702.478 498.077 700.727 501.93
C 701.517 498.057 703.17 494.616 705.658 491.575
C 706.707 490.292 709.175 488.787 709.827 487.328
C 710.024 486.884 709.176 486.688 709.213 486.208
C 709.357 484.339 712.604 484.808 713.491 484.535
C 714.172 484.326 713.659 483.665 713.764 483.193
C 713.825 482.917 714.496 482.679 714.702 482.578
C 715.097 482.386 715.869 481.979 716.327 482.151
C 716.745 482.307 716.825 482.889 717.314 482.744
C 718.583 482.368 719.436 480.596 720.901 480.69
C 721.394 480.722 721.339 481.501 721.837 481.329
C 722.465 481.112 722.68 480.32 723.429 480.208
C 724.373 480.068 724.459 481.064 725.434 481.073
C 727.502 481.091 729.49 480.238 731.482 480.269
C 732.48 480.285 733.37 480.817 734.397 480.848
C 737.177 480.931 740.213 481.141 742.976 480.808
C 745.11 480.551 747.484 479.801 749.704 479.641
C 750.943 479.552 752.196 479.973 753.441 479.885
C 754.381 479.818 754.888 479.003 755.834 478.871
C 758.081 478.558 760.465 478.805 762.729 478.844
C 763.471 478.857 764.653 479.173 765.362 478.918
C 765.733 478.784 765.582 478.173 765.507 477.961
C 765.111 476.84 764.815 475.801 764.809 474.577
C 764.798 471.845 765.492 468.707 764.857 466.037
C 763.41 463.82 760.561 461.495 757.827 461.271
C 755.95 461.118 751.725 461.539 750.494 459.98 Z"
opacity="1" fill="rgb(177,193,217)" fill-rule="evenodd" />
<path d="
M 711.444 595.594
C 712.21 592.385 714.707 590.8 717.761 589.951
C 719.16 589.562 720.603 589.38 722.047 589.251
C 727.934 588.724 737.832 588.457 739.549 595.833
C 739.894 597.312 740.051 598.988 740.108 600.501
C 740.192 602.729 739.624 605.659 737.305 606.667
C 735.942 607.258 733.945 606.773 732.502 606.775
C 729.128 606.78 725.778 606.923 722.405 606.728
C 720.221 606.602 717.983 605.881 716.241 607.539
C 715.498 609.934 715.684 614.413 718.559 615.393
C 720.326 615.995 722.56 615.747 724.407 615.779
C 729.014 615.859 733.43 615.347 737.995 614.998
C 738.326 615.418 737.994 616.012 737.785 616.438
C 737.09 617.856 736.09 619.399 734.431 619.736
C 730.2 620.597 725.08 620.044 720.775 619.853
C 718.966 619.773 716.951 619.822 715.334 618.893
C 709.853 615.747 711.194 607.394 711.176 602.05
C 711.168 599.905 711.089 597.717 711.444 595.594 Z
M 715.482 599.617
C 715.367 600.639 715.365 601.589 715.686 602.573
C 717.619 603.351 719.758 603.108 721.798 603.14
C 725.569 603.199 729.836 603.738 733.549 602.99
C 734.288 602.637 734.635 601.674 734.85 600.931
C 735.624 598.264 734.731 596.258 732.624 594.474
C 731.292 593.346 729.482 593.287 727.803 593.204
C 724.293 593.03 719.698 592.295 717.04 595.152
C 715.818 596.466 715.848 597.971 715.482 599.617 Z"
opacity="1" fill="rgb(10,11,14)" fill-rule="evenodd" />
<path d="
M 758.826 580.239
C 767.554 579.315 776.726 579.841 785.505 579.826
C 787.642 579.823 789.772 579.541 791.908 579.552
C 792.557 579.555 793.522 579.391 793.973 579.88
C 793.917 581.288 794.52 582.809 794.265 584.213
C 790.515 584.179 786.753 584.24 783.001 584.252
C 781.757 584.255 779.794 583.874 778.674 584.491
C 778.133 593.061 778.79 601.881 778.809 610.493
C 778.815 613.19 779.967 618.297 777.449 620.001
C 776.218 620.401 774.978 619.954 773.94 619.271
C 773.57 618.31 773.824 617.032 773.808 616.007
C 773.769 613.508 773.786 611.007 773.781 608.508
C 773.767 600.683 772.994 592.383 773.802 584.612
C 770.371 584.704 766.937 584.655 763.503 584.676
C 762.125 584.684 760.052 584.906 758.832 584.182
C 758.673 582.878 758.857 581.55 758.826 580.239 Z"
opacity="1" fill="rgb(5,6,9)" fill-rule="evenodd" />
<path d="
M 797.415 596.096
C 798.607 590.1 805.063 588.791 810.363 588.66
C 813.221 588.59 817.673 588.887 816.838 592.858
C 814.567 593.515 811.972 593.28 809.621 593.216
C 808.519 593.186 807.088 592.885 806.065 593.405
C 804.438 594.231 802.488 595.77 801.853 597.531
C 801.32 599.008 801.712 600.929 801.731 602.47
C 801.775 606.015 801.745 609.563 801.89 613.106
C 801.971 615.092 802.616 617.778 801.597 619.609
C 800.665 620.207 798.326 620.092 797.476 619.412
C 796.792 616.923 797.23 613.834 797.213 611.266
C 797.181 606.312 796.607 601 797.415 596.096 Z"
opacity="1" fill="rgb(9,9,11)" fill-rule="evenodd" />
<path d="
M 807.081 460.933
C 807.798 456.948 809.305 453.372 811.17 449.799
C 812.485 447.363 814.984 445.319 817.134 443.65
C 820.218 441.255 823.836 439.232 827.65 438.283
C 834.426 436.596 841.859 437.568 848.772 437.53
C 853.579 437.504 858.38 437.409 863.188 437.43
C 867.1 437.447 871.01 437.37 874.922 437.358
C 876.798 437.352 879.125 437.035 880.901 437.755
C 886.36 439.968 887.366 444.462 886.876 449.759
C 886.692 451.751 886.441 454.056 885.341 455.792
C 884.395 457.285 882.196 458.589 880.738 459.549
C 879.762 459.946 878.535 459.737 877.497 459.74
C 874.997 459.744 872.497 459.737 869.996 459.738
C 862.002 459.74 854.003 459.778 846.009 459.655
C 842.34 459.599 837.512 458.711 833.987 459.891
C 826.077 462.539 826.503 476.508 833.041 480.292
C 836.272 482.162 840.816 481.183 844.404 481.066
C 849.85 480.889 855.299 480.872 860.748 480.907
C 863.762 480.927 867.061 480.695 869.967 481.559
C 878.419 484.073 886.202 490.556 889.741 498.671
C 891.345 502.349 891.158 506.132 891.466 510.037
C 891.861 515.054 891.969 520.327 890.604 525.239
C 888.332 533.419 881.481 540.624 873.597 543.668
C 867.521 546.014 860.843 545.681 854.439 545.648
C 846.459 545.607 838.48 545.698 830.5 545.718
C 826.665 545.727 822.831 545.746 818.997 545.809
C 816.804 545.845 814.319 546.183 812.187 545.548
C 807.91 544.275 806.226 539.093 806.214 535.104
C 806.198 530.067 808.506 525.186 813.68 523.76
C 817.561 522.69 822.324 523.445 826.324 523.416
C 835.685 523.349 845.047 523.461 854.408 523.453
C 857.228 523.451 861.042 524.155 863.741 523.282
C 869.47 521.431 870.838 514.789 869.484 509.66
C 868.696 506.675 865.425 503.765 862.298 503.467
C 859.614 503.211 856.892 503.551 854.203 503.575
C 847.558 503.634 840.774 503.892 834.138 503.513
C 829.852 503.269 825.473 502.467 821.656 500.426
C 814.439 496.567 808.701 488.46 806.845 480.544
C 805.422 474.48 806.177 467.049 807.081 460.933 Z"
opacity="1" fill="rgb(0,0,1)" fill-rule="evenodd" />
<path d="
M 820.96 607.595
C 822.165 602.948 825.227 602.447 829.574 602.181
C 834.22 601.897 838.867 602.404 843.508 602.118
C 843.709 601.041 843.59 600.076 843.471 599.003
C 843.335 597.777 843.295 596.303 842.469 595.307
C 839.672 591.929 832.293 593.123 828.494 593.288
C 827.1 593.349 825.276 593.749 824.001 593.129
C 824.438 589.745 827.147 589.383 830.003 589.124
C 834.762 588.691 841.033 588.117 844.965 591.384
C 849.555 595.199 848.395 602.892 848.449 608.144
C 848.473 610.438 848.73 612.916 848.327 615.183
C 847.378 620.516 840.228 620.073 836.089 620.055
C 831.261 620.035 823.15 621.184 821.208 615.239
C 820.867 614.196 820.713 613.092 820.678 611.999
C 820.632 610.544 820.695 609.026 820.96 607.595 Z
M 825.431 608.587
C 825.137 610.542 825.019 613.467 826.561 614.964
C 828.036 616.396 831.262 616.304 833.183 616.295
C 835.631 616.285 840.826 616.606 842.583 614.613
C 843.727 613.316 843.758 611.073 843.808 609.439
C 843.835 608.541 844.02 607.206 843.688 606.376
C 842.16 606.085 840.619 606.203 839.075 606.104
C 835.09 605.847 827.445 603.971 825.431 608.587 Z"
opacity="1" fill="rgb(10,11,13)" fill-rule="evenodd" />
<path d="
M 856.436 599.622
C 856.772 597.34 856.7 594.565 858.205 592.666
C 859.81 590.64 862.267 589.927 864.725 589.562
C 869.726 588.818 875.355 588.524 880.362 589.323
C 880.696 590.291 881.559 592.679 880.539 593.488
C 879.31 593.813 877.801 593.448 876.542 593.373
C 873.814 593.21 871.074 593.099 868.341 593.19
C 866.984 593.235 865.246 593.163 864.06 593.918
C 862.71 594.777 861.879 596.207 861.589 597.754
C 861.341 599.084 861.397 600.455 861.352 601.801
C 861.219 605.77 860.037 613.228 864.19 615.596
C 865.869 616.553 868.179 616.068 870.006 616.009
C 873.884 615.884 877.796 615.79 881.68 615.781
C 881.45 616.898 881.924 618.119 881.606 619.268
C 879.302 620.407 875.896 620.187 873.397 620.184
C 866.934 620.179 860.708 620.388 857.213 613.904
C 856.52 612.618 856.674 610.941 856.569 609.526
C 856.324 606.224 856.134 602.931 856.436 599.622 Z"
opacity="1" fill="rgb(13,12,16)" fill-rule="evenodd" />
<path d="
M 888.952 580.086
C 889.103 579.513 889.228 579.129 889.559 578.627
C 890.652 578.037 892.295 578.142 893.323 578.842
C 894.412 580.829 893.886 584.075 893.88 586.285
C 893.871 590.032 893.925 593.763 894.098 597.5
C 894.181 599.276 893.872 601.103 894.133 602.865
C 895.735 602.436 897.05 601.167 898.338 600.181
C 902.803 596.76 906.844 590.934 912.132 588.825
C 913.418 588.735 914.739 589.538 915.505 590.552
C 914.929 591.961 913.091 592.87 912.002 593.891
C 908.811 596.884 905.361 599.79 902.013 602.578
C 902.636 604.026 904.307 605.31 905.384 606.463
C 908.204 609.483 911.26 612.273 913.92 615.442
C 914.815 616.509 917.085 618.406 917.26 619.806
C 914.209 621.3 911.719 619.571 909.63 617.522
C 905.63 613.598 901.962 609.355 898.011 605.398
C 896.741 606.295 895.67 607.068 894.667 608.275
C 894.64 610.948 894.785 613.642 894.782 616.322
C 894.781 617.373 894.885 618.763 894.116 619.585
C 892.928 620.168 890.869 619.968 889.587 619.824
C 888.917 612.159 889.391 604.216 889.317 596.506
C 889.265 591.105 888.536 585.46 888.952 580.086 Z"
opacity="1" fill="rgb(12,13,16)" fill-rule="evenodd" />
<path d="
M 927.919 404.617
C 929.714 404.488 931.769 404.817 933.512 404.359
C 935.894 404.425 939.914 404.078 941.9 405.52
C 943.392 406.603 943.831 408.059 944.692 409.563
C 945.178 412.522 944.958 415.504 944.924 418.493
C 944.885 422.996 944.844 427.495 944.756 431.997
C 944.727 433.449 944.216 435.852 944.997 437.104
C 947.074 438.125 950.168 437.576 952.42 437.567
C 957.99 437.546 964.179 436.699 969.674 437.767
C 971.416 438.637 973.739 440.463 974.533 442.283
C 975.03 443.422 974.923 444.74 975.022 445.95
C 975.281 449.112 975.251 452.983 974.114 455.984
C 971.644 459.864 967.8 459.78 963.761 459.777
C 958.531 459.773 953.219 459.459 948.006 459.942
C 947 459.924 946.001 459.946 944.998 459.932
C 944.139 465.02 945.012 470.834 944.999 476.002
C 944.97 486.838 944.8 497.674 944.796 508.508
C 944.794 514.133 946.143 520.154 951.956 522.57
C 953.41 523.552 955.89 523.75 957.597 523.789
C 960.888 523.863 964.216 523.695 967.499 523.914
C 970.522 524.395 972.198 527.296 974.309 529.149
C 975.23 531.14 975.322 532.665 975.275 534.863
C 975.234 536.76 975.421 540.022 974.309 541.634
C 971.635 545.509 967.638 545.6 963.354 545.735
C 958.633 545.884 953.73 546.111 949.063 545.279
C 932.646 542.353 922.586 526.814 922.169 511.031
C 921.886 498.706 922.044 486.32 922.221 473.994
C 922.269 470.661 922.141 467.336 922.15 464.005
C 922.153 462.974 922.594 461.013 921.956 460.138
C 920.464 460.097 918.994 460.164 917.503 460.222
C 915.005 460.313 912.503 460.245 910.004 460.271
C 908.643 460.284 906.921 460.439 905.683 459.766
C 903.919 458.807 902.709 456.651 902.043 454.833
C 900.312 450.104 899.779 442.334 904.058 438.749
C 905.49 437.55 907.345 437.736 909.099 437.623
C 912 437.435 914.903 437.313 917.811 437.303
C 919.104 437.298 920.889 437.581 922.124 437.214
C 921.424 431.948 922.094 426.094 922.08 420.77
C 922.071 417.581 921.385 413.935 922.006 410.808
C 922.609 407.768 924.752 405.029 927.919 404.617 Z"
opacity="1" fill="rgb(0,0,1)" fill-rule="evenodd" />
<path d="
M 917.503 460.222
C 918.994 460.164 920.464 460.097 921.956 460.138
C 922.594 461.013 922.153 462.974 922.15 464.005
C 922.141 467.336 922.269 470.661 922.221 473.994
C 922.044 486.32 921.886 498.706 922.169 511.031
C 921.622 509.378 921.973 507.209 921.953 505.48
C 921.907 501.429 921.935 497.392 922.035 493.343
C 922.083 491.418 920.884 490.75 920.803 488.972
C 920.56 483.642 920.899 478.293 920.693 472.957
C 920.561 469.518 921.436 464.399 918.773 462.012
C 918.192 461.491 918.311 460.407 917.503 460.222 Z"
opacity="1" fill="rgb(206,215,236)" fill-rule="evenodd" />
<path d="
M 921.486 600.62
C 921.904 597.88 921.557 595.013 923.441 592.73
C 926.873 588.57 934.584 589.157 939.425 589.346
C 941.43 589.424 943.336 589.598 945.086 590.677
C 948.816 592.979 949.995 596.508 950.257 600.694
C 950.353 602.239 950.514 604.233 949.557 605.547
C 947.229 607.479 944.361 607.04 941.572 606.975
C 936.517 606.857 931.412 606.818 926.36 606.844
C 926.256 608.772 925.833 611.554 926.531 613.409
C 927.434 615.809 930.411 615.588 932.46 615.639
C 935.986 615.725 939.522 615.819 943.032 615.345
C 944.559 615.139 946.579 614.101 948.045 614.268
C 948.386 615.189 948.563 616.086 948.378 617.066
C 947.816 619.612 944.595 619.799 942.544 619.875
C 937.313 620.069 930.21 621.204 925.472 618.456
C 919.703 615.109 920.987 606.306 921.486 600.62 Z
M 926.464 597.605
C 926.179 599.462 926.155 601.571 926.461 603.427
C 930.623 603.16 934.842 603.337 939.012 603.329
C 940.639 603.325 943.105 603.762 944.616 603.118
C 946.337 600.498 945.618 596.304 942.893 594.597
C 941.348 593.629 939.276 593.78 937.528 593.627
C 933.343 593.262 927.776 592.389 926.464 597.605 Z"
opacity="1" fill="rgb(12,12,15)" fill-rule="evenodd" />
<path d="
M 933.512 404.359
C 931.769 404.817 929.714 404.488 927.919 404.617
C 929.605 403.972 931.745 404.337 933.512 404.359 Z"
opacity="0.996" fill="rgb(124,122,135)" fill-rule="evenodd" />
<path d="
M 957.964 601.621
C 958.389 598.586 958.115 595.647 959.732 592.876
C 962.122 588.78 966.679 589.272 970.813 589.244
C 972.569 589.232 974.37 589.048 976.11 589.308
C 977.07 590.252 977.652 591.429 976.94 592.683
C 973.946 594.718 969.783 592.365 966.572 593.572
C 965.522 593.967 964.611 595.053 963.976 595.934
C 963.516 596.571 963.132 597.321 962.938 598.087
C 962.514 599.754 962.849 601.767 962.882 603.477
C 962.953 607.153 963.113 610.822 963.149 614.499
C 963.157 615.305 963.666 619.091 962.895 619.373
C 961.37 619.476 959.774 619.537 958.271 619.69
C 957.722 617.784 958.255 615.007 958.277 613.003
C 958.319 609.217 957.814 605.393 957.964 601.621 Z"
opacity="1" fill="rgb(8,8,11)" fill-rule="evenodd" />

</svg>